# File created by Blade
# Date/Time:  Wed Jan 21 15:55:51 2015
# Frame Rate: 120.000 fps
#------------------------------------------------------
:FULLY-SPECIFIED
:DEGREES
1371
root 19.246294 35.326692 -22.637116 -174.692052 -1.961036 -178.631234
Spine -16.416524 1.657434 -0.712186
Head 9.695768 -2.739043 0.568895
LeftShoulder -11.372156 -33.884718 23.547266
LeftArm 0.640031 -1.277765 -5.358063
LeftForeArm 12.987942 -0.000000 -2.822298
LeftHand -8.645479 0.000000 -3.175479
LeftHandThumb1 -26.253704 0.000000 33.147579
RightShoulder -14.873679 -2.925408 -11.409029
RightArm 1.754887 39.528774 7.809632
RightForeArm -36.780157 0.000000 4.452013
RightHand -7.953295 0.000000 4.800412
RightHandThumb1 -24.326973 -0.000000 -32.862282
LeftUpLeg 5.613695 8.056907 4.428331
LeftLeg -6.644906 -0.000000 0.000000
LeftFoot -22.131201 25.062250 -15.134069
LeftToeBase 26.242083 -0.000000 -0.000000
RightUpLeg 4.961488 -9.071034 -0.811661
RightLeg -2.887828 -0.000000 0.000000
RightFoot -23.577226 -26.002934 17.610019
RightToeBase 23.525917 -0.000000 -0.000000
1372
root 19.247845 35.326219 -22.634078 -174.688721 -1.962325 -178.633967
Spine -16.413970 1.658100 -0.721348
Head 9.623856 -2.727411 0.608601
LeftShoulder -11.373601 -33.900177 23.549375
LeftArm 0.651986 -1.270574 -5.350508
LeftForeArm 12.976146 -0.000000 -2.808013
LeftHand -8.663577 0.000000 -3.174354
LeftHandThumb1 -26.253704 0.000000 33.147579
RightShoulder -14.896944 -2.978758 -11.412076
RightArm 1.782257 39.592578 7.843245
RightForeArm -36.840923 -0.000000 4.463906
RightHand -7.920124 0.000000 4.794638
RightHandThumb1 -24.326973 -0.000000 -32.862282
LeftUpLeg 5.587957 8.056257 4.426317
LeftLeg -6.611922 -0.000000 0.000000
LeftFoot -22.146697 25.056763 -15.129717
LeftToeBase 26.262295 -0.000000 -0.000000
RightUpLeg 4.953014 -9.058901 -0.810877
RightLeg -2.885534 -0.000000 0.000000
RightFoot -23.592251 -26.028539 17.556030
RightToeBase 23.635896 -0.000000 -0.000000
1373
root 19.249841 35.325818 -22.631311 -174.691817 -1.957887 -178.633540
Spine -16.405529 1.672649 -0.727569
Head 9.572096 -2.731335 0.630164
LeftShoulder -11.369164 -33.917882 23.542456
LeftArm 0.679855 -1.286165 -5.344538
LeftForeArm 12.978476 -0.000000 -2.821342
LeftHand -8.670147 -0.000000 -3.125089
LeftHandThumb1 -26.253704 0.000000 33.147579
RightShoulder -14.904682 -2.970965 -11.410838
RightArm 1.775336 39.578046 7.814584
RightForeArm -36.817642 -0.000000 4.439448
RightHand -7.880322 -0.000000 4.787967
RightHandThumb1 -24.326973 -0.000000 -32.862282
LeftUpLeg 5.572383 8.082895 4.428486
LeftLeg -6.584406 -0.000000 0.000000
LeftFoot -22.170068 25.045033 -15.124646
LeftToeBase 26.275205 -0.000000 -0.000000
RightUpLeg 4.949517 -9.046569 -0.807511
RightLeg -2.881428 -0.000000 0.000000
RightFoot -23.596026 -26.027522 17.553997
RightToeBase 23.586556 -0.000000 -0.000000
1374
root 19.251968 35.325327 -22.628163 -174.697195 -1.955186 -178.635274
Spine -16.394274 1.680489 -0.740325
Head 9.510440 -2.750885 0.670687
LeftShoulder -11.355643 -33.907247 23.529664
LeftArm 0.700971 -1.328023 -5.327559
LeftForeArm 12.953871 0.000000 -2.824715
LeftHand -8.624356 -0.000000 -3.164847
LeftHandThumb1 -26.253704 0.000000 33.147579
RightShoulder -14.903136 -2.965163 -11.412543
RightArm 1.759967 39.636796 7.811305
RightForeArm -36.894347 -0.000000 4.443005
RightHand -7.895483 -0.000000 4.770700
RightHandThumb1 -24.326973 -0.000000 -32.862282
LeftUpLeg 5.552972 8.084498 4.429997
LeftLeg -6.544810 -0.000000 0.000000
LeftFoot -22.180549 25.041336 -15.097793
LeftToeBase 26.298338 -0.000000 -0.000000
RightUpLeg 4.942538 -9.031298 -0.808912
RightLeg -2.870703 -0.000000 0.000000
RightFoot -23.601376 -26.038179 17.595139
RightToeBase 23.877311 -0.000000 -0.000000
1375
root 19.254168 35.325022 -22.624575 -174.697905 -1.949460 -178.641391
Spine -16.384305 1.703169 -0.763944
Head 9.452787 -2.780923 0.704740
LeftShoulder -11.342189 -33.922809 23.530690
LeftArm 0.725012 -1.336886 -5.326269
LeftForeArm 13.015898 -0.000000 -2.831853
LeftHand -8.783450 -0.000000 -3.017425
LeftHandThumb1 -26.253704 0.000000 33.147579
RightShoulder -14.926360 -2.979493 -11.400674
RightArm 1.759730 39.654285 7.802597
RightForeArm -36.888326 -0.000000 4.433818
RightHand -7.868300 0.000000 4.777421
RightHandThumb1 -24.326973 -0.000000 -32.862282
LeftUpLeg 5.532807 8.088758 4.426177
LeftLeg -6.514232 -0.000000 0.000000
LeftFoot -22.194537 25.046281 -15.087768
LeftToeBase 26.307416 -0.000000 -0.000000
RightUpLeg 4.936303 -9.008960 -0.810649
RightLeg -2.866036 -0.000000 0.000000
RightFoot -23.612619 -26.044646 17.560590
RightToeBase 23.608004 -0.000000 -0.000000
1376
root 19.256658 35.324724 -22.622586 -174.713601 -1.953395 -178.642824
Spine -16.358179 1.704705 -0.774960
Head 9.388268 -2.819275 0.724627
LeftShoulder -11.343176 -33.947042 23.533758
LeftArm 0.751584 -1.340925 -5.311636
LeftForeArm 13.010248 0.000000 -2.853722
LeftHand -8.764708 -0.000000 -3.014676
LeftHandThumb1 -26.253704 0.000000 33.147579
RightShoulder -14.945472 -2.974856 -11.397170
RightArm 1.779171 39.679571 7.805151
RightForeArm -36.934764 -0.000000 4.405685
RightHand -7.832922 -0.000000 4.796759
RightHandThumb1 -24.326973 -0.000000 -32.862282
LeftUpLeg 5.529039 8.085919 4.430633
LeftLeg -6.482971 -0.000000 0.000000
LeftFoot -22.213469 25.035567 -15.085518
LeftToeBase 26.370446 -0.000000 -0.000000
RightUpLeg 4.946984 -9.007731 -0.810268
RightLeg -2.857683 -0.000000 0.000000
RightFoot -23.620990 -26.051512 17.516236
RightToeBase 23.690029 -0.000000 -0.000000
1377
root 19.258544 35.324604 -22.620679 -174.721402 -1.944362 -178.639803
Spine -16.343987 1.718603 -0.777888
Head 9.332892 -2.820195 0.752118
LeftShoulder -11.345890 -33.947681 23.536938
LeftArm 0.770372 -1.359759 -5.308922
LeftForeArm 13.014431 -0.000000 -2.854951
LeftHand -8.780409 -0.000000 -3.011182
LeftHandThumb1 -26.253704 0.000000 33.147579
RightShoulder -14.964726 -2.999603 -11.386335
RightArm 1.796945 39.682367 7.801365
RightForeArm -36.917423 -0.000000 4.395980
RightHand -7.809425 -0.000000 4.835777
RightHandThumb1 -24.326973 -0.000000 -32.862282
LeftUpLeg 5.525753 8.087989 4.437538
LeftLeg -6.464296 -0.000000 0.000000
LeftFoot -22.218443 25.044262 -15.079116
LeftToeBase 26.302813 -0.000000 -0.000000
RightUpLeg 4.950017 -8.979478 -0.805563
RightLeg -2.856598 -0.000000 0.000000
RightFoot -23.624627 -26.056859 17.525915
RightToeBase 23.645147 -0.000000 -0.000000
